<svg xmlns="http://www.w3.org/2000/svg" viewBox="0 0 1024 1024">
  <!-- magikdex — the all-seeing eye. Standalone favicons have no inherited
       color context (currentColor would resolve to black and vanish on a dark
       tab), so the steel accent is explicit here. Transparent ground reads on
       both light and dark tab bars. -->
  <path d="M 497.50 893.97 C460.36,892.28 429.74,886.47 396.50,874.82 C378.30,868.43 345.33,852.01 329.02,841.19 C302.17,823.40 275.33,799.77 255.99,776.90 C244.63,763.46 228.84,741.44 223.73,731.91 C221.79,728.28 217.94,721.31 215.18,716.41 C202.40,693.72 187.55,649.85 182.55,620.00 C177.35,588.97 176.64,544.93 180.84,514.00 C189.01,453.91 213.06,400.18 253.80,351.00 C260.36,343.08 282.14,320.85 290.89,313.14 C298.64,306.31 318.76,290.95 345.00,271.83 C366.03,256.50 383.93,242.38 393.50,233.56 C396.80,230.52 399.78,228.03 400.11,228.02 C401.31,227.98 426.74,199.38 432.57,191.50 C440.63,180.60 441.63,179.10 449.15,166.50 C461.21,146.27 467.60,132.06 476.80,105.00 C486.63,76.11 487.80,73.47 493.50,67.35 C497.86,62.68 499.34,61.78 505.00,60.35 C520.78,56.37 531.59,63.97 538.92,84.23 C539.97,87.13 543.85,98.05 547.54,108.50 C563.07,152.46 583.94,187.15 613.39,217.94 C624.52,229.58 647.92,249.19 668.95,264.50 C696.84,284.81 733.51,314.23 745.55,325.95 C762.98,342.93 775.38,357.46 788.69,376.50 C809.73,406.59 820.33,428.34 831.09,463.50 C841.93,498.89 845.36,522.75 845.41,563.00 C845.45,600.34 842.84,619.49 833.01,653.84 C823.27,687.88 810.89,715.12 792.26,743.50 C781.34,760.12 777.51,765.08 760.84,784.10 C745.18,801.97 738.00,808.67 716.73,825.24 C695.45,841.80 686.56,847.51 665.00,858.45 C644.75,868.72 633.83,873.25 616.40,878.57 C573.20,891.76 540.88,895.95 497.50,893.97 ZM 557.00 864.58 C590.31,859.23 611.49,853.18 638.49,841.31 C669.40,827.73 687.36,816.38 715.20,792.83 C737.55,773.91 760.91,746.22 775.59,721.24 C778.74,715.88 782.59,709.36 784.16,706.73 C785.72,704.11 787.00,701.76 787.00,701.50 C787.00,701.25 788.75,697.30 790.89,692.74 C796.52,680.72 804.77,658.34 808.67,644.50 C816.12,618.07 818.89,599.36 819.65,570.50 C820.99,518.98 810.77,473.38 787.46,426.91 C775.23,402.53 753.96,372.95 735.01,353.96 C711.86,330.77 702.07,322.69 659.96,292.00 C638.01,276.01 611.62,254.68 600.62,244.05 C585.44,229.37 577.12,219.11 555.17,188.00 C551.71,183.10 541.32,164.90 539.75,161.00 C539.42,160.18 537.51,155.68 535.51,151.00 C533.51,146.32 530.31,138.23 528.38,133.00 C526.45,127.78 524.44,122.42 523.90,121.11 C522.65,118.06 516.81,97.08 516.56,94.72 C516.29,92.25 512.74,89.99 510.16,90.67 C508.50,91.10 507.55,92.84 505.97,98.36 C497.23,128.84 487.75,153.51 477.63,172.13 C471.38,183.65 462.59,196.56 461.19,196.26 C460.58,196.13 460.30,196.62 460.58,197.34 C460.85,198.06 458.38,202.45 455.07,207.08 C436.88,232.58 414.61,253.78 375.50,282.86 C370.00,286.95 359.42,294.87 352.00,300.46 C344.58,306.06 336.25,312.15 333.50,314.01 C325.83,319.19 314.10,329.15 298.08,344.11 C281.29,359.78 277.92,363.34 268.85,375.00 C231.41,423.14 211.39,472.51 204.99,532.50 C202.73,553.63 204.39,600.12 207.90,613.80 C208.42,615.84 209.09,619.30 209.39,621.50 C210.44,629.22 217.02,653.08 221.58,665.73 C230.31,689.89 246.15,720.82 258.85,738.50 C271.81,756.52 290.50,777.14 305.45,789.89 C316.77,799.54 333.62,812.41 341.50,817.41 C344.80,819.51 348.62,822.00 350.00,822.95 C356.45,827.39 383.66,841.41 392.56,844.87 C420.35,855.69 452.11,863.44 479.00,865.96 C494.13,867.38 545.20,866.48 557.00,864.58 ZM 499.71 816.01 C471.74,814.12 444.36,808.54 420.99,799.96 C408.74,795.47 381.54,782.31 372.17,776.35 C344.67,758.85 318.13,732.79 299.01,704.50 C294.32,697.56 282.82,677.52 277.52,667.05 C274.15,660.39 266.02,636.88 262.64,624.00 C257.06,602.77 255.71,590.68 255.60,561.00 C255.49,529.78 256.38,522.16 263.15,497.02 C268.02,478.90 270.72,471.64 278.24,456.50 C290.12,432.56 297.72,420.64 312.04,403.50 C331.61,380.07 352.45,362.45 397.18,331.51 C438.79,302.72 439.98,301.81 458.01,284.88 C476.50,267.52 494.39,244.73 501.10,230.00 C504.58,222.37 506.10,221.00 511.09,221.00 C515.59,221.00 519.15,224.62 523.94,234.04 C531.50,248.92 543.99,264.11 565.28,284.34 C573.65,292.29 582.75,300.56 585.50,302.71 C592.88,308.49 611.49,321.91 619.50,327.24 C628.84,333.45 656.95,354.06 670.00,364.27 C715.10,399.55 749.09,451.26 762.43,504.92 C771.54,541.54 769.84,594.91 758.35,633.00 C751.78,654.77 737.22,685.22 723.70,705.50 C710.89,724.69 690.15,747.50 672.80,761.46 C635.48,791.49 582.77,812.06 535.50,815.05 C527.80,815.53 519.25,816.13 516.50,816.37 C513.75,816.61 506.19,816.45 499.71,816.01 ZM 542.16 795.44 C577.84,791.54 614.96,777.94 645.25,757.69 C666.03,743.81 677.99,732.96 695.12,712.48 C709.60,695.16 726.28,667.04 733.35,648.00 C747.67,609.49 752.37,579.54 749.51,545.00 C747.01,514.81 741.33,492.86 729.74,468.50 C714.62,436.73 696.53,412.76 671.00,390.68 C658.78,380.12 626.71,355.38 623.55,354.09 C623.00,353.87 618.04,350.37 612.52,346.32 C607.01,342.27 597.71,335.60 591.84,331.51 C585.98,327.42 578.56,321.67 575.34,318.73 C572.13,315.79 565.60,310.36 560.83,306.67 C548.34,297.00 526.19,273.62 518.32,261.81 C514.73,256.41 511.43,252.00 510.98,252.00 C510.54,252.00 509.06,253.99 507.70,256.43 C506.34,258.86 502.68,264.24 499.56,268.38 C495.42,273.87 493.44,275.75 492.20,275.35 C490.80,274.91 490.75,274.99 491.96,275.84 C493.15,276.69 492.50,277.84 488.30,282.28 C478.52,292.62 472.30,298.55 463.43,305.98 C458.52,310.09 452.22,315.50 449.43,317.99 C446.64,320.49 438.86,326.35 432.14,331.02 C377.68,368.84 365.11,378.09 352.65,389.52 C330.81,409.55 317.53,424.84 307.50,441.49 C292.95,465.65 285.49,483.46 279.46,508.50 C274.07,530.84 272.70,544.14 273.33,568.00 C273.92,590.50 275.53,600.73 282.43,625.73 C286.80,641.58 287.80,644.10 298.61,666.50 C320.96,712.78 357.93,749.27 406.50,772.97 C449.37,793.90 491.92,800.95 542.16,795.44 ZM 735.50 748.00 C735.84,747.45 736.32,747.00 736.56,747.00 C736.80,747.00 737.00,747.45 737.00,748.00 C737.00,748.55 736.52,749.00 735.94,749.00 C735.36,749.00 735.16,748.55 735.50,748.00 ZM 353.00 321.00 C353.00,320.45 353.45,320.00 354.00,320.00 C354.55,320.00 355.00,320.45 355.00,321.00 C355.00,321.55 354.55,322.00 354.00,322.00 C353.45,322.00 353.00,321.55 353.00,321.00 ZM 527.50 177.00 C527.84,176.45 528.32,176.00 528.56,176.00 C528.80,176.00 529.00,176.45 529.00,177.00 C529.00,177.55 528.52,178.00 527.94,178.00 C527.36,178.00 527.16,177.55 527.50,177.00 ZM 505.61 773.73 C501.44,768.27 500.91,763.06 501.36,732.53 C501.74,706.99 501.97,703.85 503.78,699.75 C506.11,694.50 510.70,692.18 515.30,693.93 C521.65,696.34 522.98,703.93 522.99,737.59 C523.00,764.56 522.25,769.97 517.89,774.62 C514.40,778.34 508.81,777.93 505.61,773.73 ZM 413.50 742.85 C412.40,742.24 410.94,741.05 410.25,740.18 C408.25,737.68 408.80,729.54 411.49,721.83 C413.65,715.65 416.25,710.39 427.42,689.63 C429.74,685.32 434.36,681.00 436.65,681.00 C437.48,681.00 439.47,682.32 441.08,683.92 C445.21,688.06 444.91,691.87 439.12,709.04 C430.68,734.04 428.55,738.26 422.40,742.06 C418.88,744.24 416.44,744.45 413.50,742.85 ZM 603.00 742.88 C599.68,741.55 596.17,738.19 594.25,734.50 C591.67,729.55 579.00,692.92 579.00,690.42 C579.00,684.64 583.22,680.45 587.98,681.50 C591.54,682.28 592.56,683.50 598.77,694.50 C608.61,711.90 614.34,726.30 614.43,733.83 C614.49,738.48 614.14,739.48 611.69,741.58 C608.68,744.18 606.92,744.44 603.00,742.88 ZM 339.23 681.46 C334.18,679.33 333.74,673.43 338.10,666.34 C340.06,663.16 354.38,652.75 361.16,649.57 C366.15,647.24 370.81,647.84 373.26,651.14 C374.99,653.46 375.08,654.22 374.02,657.43 C371.50,665.07 356.15,678.64 346.87,681.44 C343.14,682.56 341.87,682.56 339.23,681.46 ZM 673.50 680.60 C665.17,676.64 652.32,664.60 650.05,658.64 C648.35,654.17 651.83,648.12 656.13,648.03 C658.90,647.98 673.18,655.68 679.34,660.55 C688.03,667.42 690.55,675.54 685.55,680.55 C682.48,683.61 679.85,683.62 673.50,680.60 ZM 490.18 666.92 C473.32,665.30 442.33,657.97 426.00,651.74 C418.57,648.92 400.14,639.85 392.00,635.03 C359.81,615.95 322.53,582.34 305.60,557.15 C299.17,547.59 300.03,545.74 320.37,525.03 C354.05,490.75 374.28,475.26 415.00,452.55 C424.34,447.34 430.05,445.08 446.50,440.07 C468.08,433.50 489.35,430.52 514.50,430.54 C530.60,430.56 535.94,430.98 549.50,433.30 C558.30,434.81 567.53,436.69 570.00,437.48 C589.28,443.61 596.02,446.21 606.79,451.66 C639.02,467.99 658.90,482.54 692.26,514.23 C707.95,529.13 720.57,543.52 721.63,547.69 C721.97,549.04 721.18,551.74 719.56,554.71 C713.76,565.37 688.75,592.58 672.33,606.10 C662.14,614.49 636.89,632.40 629.09,636.78 C588.26,659.69 535.00,671.25 490.18,666.92 ZM 533.43 643.01 C542.50,641.86 559.06,637.51 564.00,634.97 C573.77,629.96 591.21,610.83 598.15,597.50 C603.11,587.99 607.69,572.55 609.09,560.61 C611.23,542.42 607.27,517.93 599.55,501.66 C590.42,482.43 572.10,464.04 557.41,459.38 C548.10,456.42 534.73,454.04 526.63,453.90 C523.26,453.83 518.47,453.42 516.00,452.97 C513.14,452.45 506.96,452.70 499.00,453.66 C492.12,454.49 485.15,455.32 483.50,455.52 C478.03,456.17 464.76,459.96 459.45,462.39 C454.06,464.86 439.94,477.93 432.65,487.19 C424.67,497.34 416.97,517.64 414.95,533.87 C410.11,572.88 427.08,613.08 456.46,632.20 C472.20,642.43 503.41,646.82 533.43,643.01 ZM 415.66 617.75 C409.84,610.00 403.20,593.96 399.47,578.64 C392.74,550.96 396.67,515.33 409.28,489.75 C412.20,483.84 414.47,479.00 414.34,479.00 C412.43,479.00 384.77,497.38 376.03,504.45 C366.73,511.98 345.82,531.24 340.59,537.11 C338.44,539.53 335.34,542.93 333.71,544.68 L 330.73 547.87 L 333.53 552.63 C336.92,558.42 361.63,583.42 372.00,591.55 C376.12,594.78 381.40,599.13 383.73,601.21 C386.05,603.30 388.49,605.00 389.13,605.00 C389.78,605.00 391.93,606.24 393.91,607.75 C397.74,610.68 415.96,621.00 417.30,621.00 C417.74,621.00 417.00,619.54 415.66,617.75 ZM 615.92 616.36 C627.61,610.04 637.54,603.25 649.98,593.07 C662.65,582.70 685.42,561.17 689.33,555.86 C694.08,549.41 693.25,547.98 673.13,527.95 C657.43,512.33 648.26,504.36 634.63,494.52 C628.44,490.05 609.72,478.95 609.22,479.45 C608.98,479.69 609.77,481.27 610.98,482.97 C613.79,486.91 620.22,501.76 622.44,509.41 C627.54,527.01 629.18,550.21 626.59,567.78 C624.07,584.85 616.79,605.11 609.09,616.53 C607.43,618.99 606.35,621.00 606.70,621.00 C607.05,621.00 611.20,618.91 615.92,616.36 ZM 361.50 447.48 C351.24,442.49 346.83,436.79 348.41,430.52 C349.22,427.28 354.34,424.62 358.27,425.40 C362.11,426.17 370.98,431.25 374.93,434.93 C378.46,438.23 379.03,443.10 376.47,448.05 C374.42,452.03 370.56,451.88 361.50,447.48 ZM 648.57 449.43 C644.57,445.43 645.46,437.24 650.29,433.65 C661.73,425.16 669.43,423.47 673.78,428.53 C678.58,434.11 674.14,441.79 662.87,447.43 C655.12,451.31 651.02,451.88 648.57,449.43 ZM 435.46 417.96 C432.38,416.79 429.81,413.32 423.32,401.50 C416.18,388.52 414.83,384.72 414.69,377.30 C414.60,372.64 414.96,371.45 416.90,369.88 C419.97,367.39 422.97,367.51 427.10,370.27 C433.29,374.40 445.00,399.88 445.00,409.22 C445.00,415.16 440.05,419.69 435.46,417.96 ZM 579.94 414.91 C578.05,412.27 577.81,410.91 578.25,405.43 C578.67,400.20 579.89,396.76 584.91,386.59 C593.65,368.91 599.68,364.38 606.58,370.32 C609.18,372.55 609.25,372.87 608.54,379.46 C607.99,384.62 606.78,388.26 603.57,394.39 C591.98,416.58 590.89,418.00 585.46,418.00 C582.89,418.00 581.64,417.30 579.94,414.91 ZM 509.05 402.73 C502.46,399.40 501.04,390.27 501.02,351.08 C501.00,320.53 501.90,312.94 506.06,308.78 C509.85,305.00 513.87,305.09 517.74,309.05 C522.46,313.87 523.38,323.44 522.68,360.15 C522.34,378.20 521.64,392.09 520.96,394.42 C519.76,398.53 515.10,404.01 512.83,403.99 C512.10,403.98 510.40,403.41 509.05,402.73 ZM 493.88 616.98 C476.55,612.72 458.12,598.27 449.79,582.42 C443.98,571.37 441.66,561.54 441.67,548.00 C441.67,534.27 443.33,526.96 449.14,515.00 C452.55,508.00 454.89,504.91 462.39,497.49 C471.97,488.01 477.69,484.39 491.00,479.40 C497.76,476.87 499.73,476.59 511.00,476.59 C522.01,476.60 524.50,476.93 531.93,479.40 C554.42,486.87 570.32,501.97 577.53,522.69 C585.39,545.29 582.28,569.67 569.04,589.29 C561.84,599.96 545.54,612.02 532.00,616.70 C523.43,619.66 505.33,619.80 493.88,616.98 ZM 539.28 532.64 C544.20,530.56 546.23,527.63 546.79,521.85 C547.67,512.71 541.66,505.85 532.74,505.79 C523.57,505.74 519.56,509.73 519.60,518.90 C519.61,521.98 520.27,525.85 521.06,527.50 C523.75,533.11 532.41,535.55 539.28,532.64 Z" fill="#38bdf8"/>
</svg>
